<svg xmlns="http://www.w3.org/2000/svg" xmlns:xlink="http://www.w3.org/1999/xlink" width="500" zoomAndPan="magnify" viewBox="0 0 375 374.999991" height="500" preserveAspectRatio="xMidYMid meet" version="1.0"><defs><g/></defs><g fill="#decba4" fill-opacity="1"><g transform="translate(132.150083, 284.086004)"><g><path d="M 8.625 0 L 8.625 -5.3125 L 26.8125 -6.5 L 26.8125 -162.078125 L 8.625 -163.265625 L 8.625 -168.578125 L 71.828125 -168.578125 C 78.597656 -168.578125 84.757812 -168.257812 90.3125 -167.625 C 95.863281 -167 101.351562 -165.835938 106.78125 -164.140625 C 112.21875 -162.453125 116.769531 -160.226562 120.4375 -157.46875 C 124.101562 -154.71875 127.054688 -151.078125 129.296875 -146.546875 C 131.535156 -142.015625 132.65625 -136.71875 132.65625 -130.65625 C 132.65625 -125.851562 131.59375 -121.421875 129.46875 -117.359375 C 127.34375 -113.304688 124.644531 -109.941406 121.375 -107.265625 C 118.113281 -104.585938 114.316406 -102.203125 109.984375 -100.109375 C 105.648438 -98.023438 101.472656 -96.429688 97.453125 -95.328125 C 93.441406 -94.234375 89.425781 -93.410156 85.40625 -92.859375 L 85.40625 -92.375 C 93.363281 -92.375 100.6875 -91.445312 107.375 -89.59375 C 114.070312 -87.75 119.921875 -85.015625 124.921875 -81.390625 C 129.921875 -77.765625 133.835938 -73.019531 136.671875 -67.15625 C 139.515625 -61.289062 140.9375 -54.617188 140.9375 -47.140625 C 140.9375 -40.359375 139.710938 -34.269531 137.265625 -28.875 C 134.828125 -23.488281 131.5625 -19.019531 127.46875 -15.46875 C 123.375 -11.925781 118.550781 -8.972656 113 -6.609375 C 107.445312 -4.253906 101.675781 -2.5625 95.6875 -1.53125 C 89.695312 -0.507812 83.4375 0 76.90625 0 Z M 57.0625 -7.671875 C 61.3125 -6.890625 65.40625 -6.5 69.34375 -6.5 C 81.863281 -6.5 91.6875 -10.117188 98.8125 -17.359375 C 105.945312 -24.609375 109.515625 -34.457031 109.515625 -46.90625 C 109.515625 -60.207031 105.832031 -70.382812 98.46875 -77.4375 C 91.101562 -84.488281 80.921875 -88.015625 67.921875 -88.015625 C 64.222656 -88.015625 60.601562 -87.738281 57.0625 -87.1875 Z M 57.0625 -95.21875 C 60.363281 -94.738281 63.394531 -94.5 66.15625 -94.5 C 90.019531 -94.5 101.953125 -106.316406 101.953125 -129.953125 C 101.953125 -140.023438 99.273438 -147.894531 93.921875 -153.5625 C 88.566406 -159.238281 80.375 -162.078125 69.34375 -162.078125 C 65.40625 -162.078125 61.3125 -161.679688 57.0625 -160.890625 Z M 57.0625 -95.21875 "/></g></g></g><g fill="#ffffff" fill-opacity="1"><g transform="translate(90.033414, 269.464776)"><g><path d="M 7.09375 0 L 7.09375 -4.375 L 22.078125 -5.34375 L 22.078125 -133.421875 L 7.09375 -134.40625 L 7.09375 -138.78125 L 102.890625 -138.78125 L 103.859375 -99.203125 L 99.78125 -99.203125 C 99 -103.609375 98.171875 -107.347656 97.296875 -110.421875 C 96.421875 -113.503906 95.171875 -116.601562 93.546875 -119.71875 C 91.929688 -122.832031 90.035156 -125.3125 87.859375 -127.15625 C 85.691406 -129 82.90625 -130.503906 79.5 -131.671875 C 76.09375 -132.835938 72.15625 -133.421875 67.6875 -133.421875 C 62.175781 -133.421875 55.269531 -133.097656 46.96875 -132.453125 L 46.96875 -74.6875 C 48.914062 -74.488281 52.453125 -74.390625 57.578125 -74.390625 C 64.378906 -74.390625 69.238281 -76.0625 72.15625 -79.40625 C 75.070312 -82.75 76.53125 -88.828125 76.53125 -97.640625 L 81.890625 -97.640625 L 81.890625 -45.421875 L 76.53125 -45.421875 C 76.53125 -54.234375 75.054688 -60.375 72.109375 -63.84375 C 69.160156 -67.3125 64.316406 -69.046875 57.578125 -69.046875 C 52.578125 -69.046875 49.039062 -68.945312 46.96875 -68.75 L 46.96875 -6.328125 C 55.269531 -5.671875 63.503906 -5.34375 71.671875 -5.34375 C 75.492188 -5.34375 78.863281 -5.648438 81.78125 -6.265625 C 84.707031 -6.890625 87.238281 -7.910156 89.375 -9.328125 C 91.507812 -10.753906 93.320312 -12.359375 94.8125 -14.140625 C 96.3125 -15.929688 97.628906 -18.21875 98.765625 -21 C 99.898438 -23.789062 100.820312 -26.578125 101.53125 -29.359375 C 102.238281 -32.148438 102.984375 -35.585938 103.765625 -39.671875 L 107.953125 -39.671875 L 106.875 0 Z M 7.09375 0 "/></g></g></g><path stroke-linecap="butt" transform="matrix(0.75, 0, 0, 0.75, 37.500002, 298.060058)" fill="none" stroke-linejoin="miter" d="M -0.00000271667 2.498048 L 400.000024 2.498048 " stroke="#ffffff" stroke-width="5" stroke-opacity="1" stroke-miterlimit="4"/><path stroke-linecap="butt" transform="matrix(0.75, 0, 0, 0.75, 37.500002, 97.896154)" fill="none" stroke-linejoin="miter" d="M -0.00000271667 2.497836 L 400.000024 2.497836 " stroke="#ffffff" stroke-width="5" stroke-opacity="1" stroke-miterlimit="4"/></svg>